HIERARCHY
ROOT Hips
{
	OFFSET 0.000000 0.000000 0.000000
	CHANNELS 6 Xposition Yposition Zposition Zrotation Yrotation Xrotation 
	JOINT LowerBack
	{
		OFFSET 0.000000 0.000000 0.000000
		CHANNELS 3 Zrotation Yrotation Xrotation
		JOINT Spine
		{
			OFFSET 0.028270 2.035590 -0.193380
			CHANNELS 3 Zrotation Yrotation Xrotation
			JOINT Spine1
			{
				OFFSET 0.056720 2.048850 -0.042750
				CHANNELS 3 Zrotation Yrotation Xrotation
				JOINT Neck
				{
					OFFSET 0.000000 0.000000 0.000000
					CHANNELS 3 Zrotation Yrotation Xrotation
					JOINT Neck1
					{
						OFFSET -0.054170 1.746240 0.172020
						CHANNELS 3 Zrotation Yrotation Xrotation
						JOINT Head
						{
							OFFSET 0.104070 1.761360 -0.123970
							CHANNELS 3 Zrotation Yrotation Xrotation
							End Site
							{
								OFFSET 0.000000 0.000000 0.000000
							}
						}
					}
				}
				JOINT LeftShoulder
				{
					OFFSET 0.000000 0.000000 0.000000
					CHANNELS 3 Zrotation Yrotation Xrotation
					JOINT LeftArm
					{
						OFFSET 3.362410 1.200890 -0.311210
						CHANNELS 3 Zrotation Yrotation Xrotation
						JOINT LeftForeArm
						{
							OFFSET 4.983000 -0.000000 -0.000000
							CHANNELS 3 Zrotation Yrotation Xrotation
							JOINT LeftHand
							{
								OFFSET 3.483560 -0.000000 -0.000000
								CHANNELS 3 Zrotation Yrotation Xrotation
								JOINT LeftFingerBase
								{
									OFFSET 0.000000 0.000000 0.000000
									CHANNELS 3 Zrotation Yrotation Xrotation
									JOINT LeftHandIndex1
									{
										OFFSET 0.715260 -0.000000 -0.000000
										CHANNELS 3 Zrotation Yrotation Xrotation
										End Site
										{
											OFFSET 0.000000 0.000000 0.000000
										}
									}
								}
								JOINT LThumb
								{
									OFFSET 0.000000 0.000000 0.000000
									CHANNELS 3 Zrotation Yrotation Xrotation
									End Site
									{
										OFFSET 0.000000 0.000000 0.000000
									}
								}
							}
						}
					}
				}
				JOINT RightShoulder
				{
					OFFSET 0.000000 0.000000 0.000000
					CHANNELS 3 Zrotation Yrotation Xrotation
					JOINT RightArm
					{
						OFFSET -3.136600 1.374050 -0.404650
						CHANNELS 3 Zrotation Yrotation Xrotation
						JOINT RightForeArm
						{
							OFFSET -5.241900 -0.000000 -0.000000
							CHANNELS 3 Zrotation Yrotation Xrotation
							JOINT RightHand
							{
								OFFSET -3.444170 -0.000000 -0.000000
								CHANNELS 3 Zrotation Yrotation Xrotation
								JOINT RightFingerBase
								{
									OFFSET 0.000000 0.000000 0.000000
									CHANNELS 3 Zrotation Yrotation Xrotation
									JOINT RightHandIndex1
									{
										OFFSET -0.622530 -0.000000 -0.000000
										CHANNELS 3 Zrotation Yrotation Xrotation
										End Site
										{
											OFFSET 0.000000 0.000000 0.000000
										}
									}
								}
								JOINT RThumb
								{
									OFFSET 0.000000 0.000000 0.000000
									CHANNELS 3 Zrotation Yrotation Xrotation
									End Site
									{
										OFFSET 0.000000 0.000000 0.000000
									}
								}
							}
						}
					}
				}
			}
		}
	}
}
}
MOTION
Frames: 13
Frame Time: 0.008333
4.144760 17.390646 1.010956 26.141501 -88.619973 -16.854047 -3.985071 -0.010473 -5.522921 -1.589234 0.200440 -4.919075 -6.465531 0.260019 -6.030766 8.391306 -1.084171 4.779857 -2.898682 -0.365630 3.410685 0.000000 0.000000 0.000000 10.498993 3.206037 -4.403867 -82.669693 -45.795768 12.700348 177.496597 -63.321190 179.809404 11.631833 -1.061097 -0.205131 -0.023189 0.957194 -0.000000 0.000000 0.000000 0.000000 0.000000 0.000000 0.000000 2.361662 1.073074 -6.159797 92.773263 45.830626 18.598775 -175.995767 62.150732 179.660593 -18.931777 16.172541 -2.940126 0.105854 -1.199172 -0.000000 0.000000 0.000000 0.000000 0.000000 0.000000 0.000000 
4.132892 17.392032 0.990419 22.549441 -88.106768 -13.097962 -4.209920 -0.050157 -5.607474 -1.617222 0.182684 -4.917063 -6.433960 0.239190 -5.965404 8.356251 -1.212492 4.631648 -2.873320 -0.362342 3.368650 0.000000 0.000000 0.000000 10.200839 3.281745 -4.297625 -82.430671 -45.031940 12.470120 177.565368 -63.189857 179.809691 11.661594 -1.058467 -0.205197 -0.031242 0.954453 -0.000000 0.000000 0.000000 0.000000 0.000000 0.000000 0.000000 2.079407 0.967989 -6.157977 92.798929 45.712882 18.514241 -175.986114 61.999964 179.659404 -19.033124 16.160656 -2.955149 0.111128 -1.201878 -0.000000 0.000000 0.000000 0.000000 0.000000 0.000000 0.000000 
4.120487 17.393600 0.968674 20.445290 -87.687851 -10.808941 -4.414331 -0.075735 -5.706981 -1.642598 0.175651 -4.917847 -6.405636 0.229694 -5.898115 8.313933 -1.348405 4.465589 -2.847427 -0.358746 3.321593 0.000000 0.000000 0.000000 9.874898 3.357566 -4.170709 -82.099005 -44.177246 12.163865 177.645680 -63.060119 179.810237 11.684391 -1.051457 -0.204654 -0.039970 0.951093 -0.000000 0.000000 0.000000 0.000000 0.000000 0.000000 0.000000 1.777699 0.869599 -6.156308 92.856729 45.580074 18.446173 -175.977920 61.840918 179.658158 -19.134721 16.155835 -2.971560 0.116719 -1.205144 -0.000000 0.000000 0.000000 0.000000 0.000000 0.000000 0.000000 
4.106944 17.395376 0.945609 19.340030 -87.378324 -9.476839 -4.614299 -0.085763 -5.847159 -1.668636 0.181683 -4.925657 -6.380742 0.233075 -5.826182 8.264098 -1.500738 4.276832 -2.822992 -0.354908 3.268318 0.000000 0.000000 0.000000 9.529628 3.429829 -4.023543 -81.673006 -43.210570 11.769523 177.738554 -62.924165 179.811293 11.684658 -1.042540 -0.203404 -0.048941 0.947142 -0.000000 0.000000 0.000000 0.000000 0.000000 0.000000 0.000000 1.463788 0.770504 -6.154162 92.955602 45.434405 18.409635 -175.973872 61.677495 179.656946 -19.236193 16.155261 -2.988856 0.122826 -1.208896 -0.000000 0.000000 0.000000 0.000000 0.000000 0.000000 0.000000 
4.092869 17.397156 0.921432 19.050030 -87.200831 -8.938286 -4.811841 -0.079571 -6.006441 -1.695874 0.202176 -4.937274 -6.358593 0.250901 -5.751956 8.203378 -1.668857 4.063893 -2.801759 -0.350899 3.208173 0.000000 0.000000 0.000000 9.158043 3.501431 -3.853036 -81.141287 -42.130133 11.278251 177.845650 -62.779915 179.813016 11.653403 -1.029260 -0.201144 -0.057957 0.942451 -0.000000 0.000000 0.000000 0.000000 0.000000 0.000000 0.000000 1.149281 0.675473 -6.151971 93.098943 45.295026 18.418321 -175.976975 61.522969 179.655808 -19.334268 16.162361 -3.007137 0.129315 -1.213102 -0.000000 0.000000 0.000000 0.000000 0.000000 0.000000 0.000000 
4.078239 17.398855 0.896319 19.532100 -87.179384 -9.148693 -5.006449 -0.055856 -6.190030 -1.723948 0.238197 -4.954109 -6.337371 0.284131 -5.676599 8.131761 -1.857339 3.824480 -2.786001 -0.346825 3.140549 0.000000 0.000000 0.000000 8.767533 3.567525 -3.659526 -80.514809 -40.904591 10.677037 177.965909 -62.615863 179.815498 11.584009 -1.016163 -0.198072 -0.066723 0.937076 -0.000000 0.000000 0.000000 0.000000 0.000000 0.000000 0.000000 0.846764 0.582162 -6.149704 93.292789 45.174979 18.491707 -175.990834 61.388360 179.654842 -19.427101 16.174196 -3.025504 0.136261 -1.217602 -0.000000 0.000000 0.000000 0.000000 0.000000 0.000000 0.000000 
4.063250 17.400331 0.870622 20.904536 -87.344054 -10.236176 -5.189227 -0.012529 -6.391434 -1.750692 0.290943 -4.976121 -6.313800 0.334125 -5.603895 8.049471 -2.067556 3.558309 -2.778021 -0.342818 3.065341 0.000000 0.000000 0.000000 8.365090 3.621508 -3.443558 -79.812218 -39.495922 9.951808 178.096382 -62.416540 179.818688 11.478711 -1.008702 -0.194987 -0.075097 0.931061 -0.000000 0.000000 0.000000 0.000000 0.000000 0.000000 0.000000 0.570952 0.492443 -6.147241 93.540712 45.090845 18.651429 -176.019531 61.289160 179.654135 -19.513660 16.187483 -3.043257 0.143716 -1.222181 -0.000000 0.000000 0.000000 0.000000 0.000000 0.000000 0.000000 
4.047992 17.401488 0.844772 23.527908 -87.732861 -12.571547 -5.340223 0.054447 -6.606567 -1.771744 0.362070 -5.004203 -6.283613 0.402844 -5.539315 7.959010 -2.300087 3.266471 -2.780050 -0.339030 2.982948 0.000000 0.000000 0.000000 7.963355 3.651983 -3.207149 -79.064966 -37.849711 9.083384 178.231385 -62.162822 179.822433 11.347225 -1.015309 -0.192783 -0.082946 0.924479 -0.000000 0.000000 0.000000 0.000000 0.000000 0.000000 0.000000 0.337006 0.409748 -6.144402 93.846225 45.057150 18.921368 -176.067276 61.239580 179.653784 -19.593256 16.197548 -3.059399 0.151802 -1.226614 -0.000000 0.000000 0.000000 0.000000 0.000000 0.000000 0.000000 
4.032945 17.402213 0.819415 28.279082 -88.379385 -17.043971 -5.414757 0.147445 -6.826501 -1.777243 0.449086 -5.038976 -6.242452 0.488799 -5.490920 7.864162 -2.552210 2.952694 -2.793712 -0.335616 2.894486 0.000000 0.000000 0.000000 7.570113 3.641821 -2.951665 -78.308286 -35.909810 8.048528 178.364469 -61.839159 179.826438 11.208298 -1.047101 -0.192855 -0.090305 0.917412 -0.000000 0.000000 0.000000 0.000000 0.000000 0.000000 0.000000 0.159150 0.340786 -6.140911 94.209690 45.086940 19.325205 -176.137036 61.253972 179.653842 -19.666356 16.199346 -3.073138 0.160575 -1.230645 -0.000000 0.000000 0.000000 0.000000 0.000000 0.000000 0.000000 
4.017338 17.402520 0.794869 37.784033 -89.323885 -26.259592 -5.307806 0.267350 -7.077738 -1.745172 0.540366 -5.086586 -6.189056 0.583437 -5.464232 7.775823 -2.825211 2.619098 -2.820271 -0.332683 2.801054 0.000000 0.000000 0.000000 7.207430 3.565070 -2.681303 -77.597200 -33.595684 6.818106 178.485690 -61.426289 179.830389 11.090506 -1.101475 -0.195290 -0.097298 0.909366 -0.000000 0.000000 0.000000 0.000000 0.000000 0.000000 0.000000 0.049002 0.286052 -6.136139 94.634854 45.176203 19.886820 -176.230760 61.341857 179.654388 -19.733927 16.184077 -3.082972 0.170210 -1.233977 -0.000000 0.000000 0.000000 0.000000 0.000000 0.000000 0.000000 
4.002131 17.402296 0.771977 -119.927496 -89.547782 131.734152 -4.786760 0.321519 -7.305933 -1.620011 0.527211 -5.134487 -6.129549 0.590309 -5.470684 7.707276 -3.110012 2.279630 -2.857156 -0.330180 2.705905 0.000000 0.000000 0.000000 6.859919 3.344427 -2.388062 -76.967733 -30.876774 5.366699 178.595780 -60.930912 179.833934 11.020260 -1.190981 -0.201757 -0.104891 0.900600 -0.000000 0.000000 0.000000 0.000000 0.000000 0.000000 0.000000 0.008587 0.213571 -6.132087 95.096708 45.317234 20.607162 -176.333712 61.505272 179.655134 -19.800627 16.148798 -3.088549 0.179415 -1.235779 -0.000000 0.000000 0.000000 0.000000 0.000000 0.000000 0.000000 
3.986861 17.401590 0.751178 -71.341422 -88.950144 83.455482 -4.381959 -0.122089 -7.427424 -1.469669 0.070004 -5.150207 -6.051800 0.168409 -5.519414 7.691633 -3.403445 1.965171 -2.894406 -0.328220 2.613689 0.000000 0.000000 0.000000 6.524501 2.750981 -2.047491 -76.415787 -27.753260 3.672913 178.697208 -60.388937 179.836701 11.026766 -1.310218 -0.212537 -0.115080 0.891322 -0.000000 0.000000 0.000000 0.000000 0.000000 0.000000 0.000000 0.048576 -0.048349 -6.129028 95.585595 45.447648 21.464503 -176.413405 61.729141 179.655824 -19.872883 16.088744 -3.089509 0.185541 -1.233865 -0.000000 0.000000 0.000000 0.000000 0.000000 0.000000 0.000000 
3.975390 17.399667 0.728403 156.140275 -89.191175 -143.875088 -5.764703 -0.434777 -7.497111 -1.683096 -0.063986 -5.185908 -5.888681 0.009280 -5.649871 7.716574 -3.690378 1.667878 -2.942981 -0.328015 2.521879 0.000000 0.000000 0.000000 6.286792 2.124293 -1.714581 -75.832233 -24.142790 1.588964 178.689178 -59.763620 179.838380 11.146105 -1.456436 -0.227803 -0.119687 0.876756 -0.000000 0.000000 0.000000 0.000000 0.000000 0.000000 0.000000 0.287649 -0.105630 -6.089756 96.281472 45.687069 22.593795 -176.593093 62.090990 179.658480 -19.946002 15.998778 -3.085882 0.198511 -1.232211 -0.000000 0.000000 0.000000 0.000000 0.000000 0.000000 0.000000 
